# xmcd CD database file
#
# Track frame offsets:
#	150
#	15415
#	27645
#	42566
#	57667
#	68774
#	84421
#	97537
#	111622
#	126072
#
# Disc length: 1906 seconds
#
# Revision: 0
# Processed by: cddbd v1.4PL0 Copyright (c) Steve Scherf et al.
# Submitted via: CDex 1.40Release
#
DISCID=8207700a
DTITLE=Porter Wagoner - Unplugged
DYEAR=1900
DGENRE=Country
TTITLE0=Silence In The Wind
TTITLE1=Why Don't You Haul Off And Love Me
TTITLE2=Silver Eagle Meets The Great Speckled Bird
TTITLE3=Blue Velvet Band
TTITLE4=I Cried Again
TTITLE5=Lost Forever In Your Kiss
TTITLE6=After All
TTITLE7=Moses Jones
TTITLE8=Satan Wore Satin
TTITLE9=Family Bible
EXTD=ID3G: 2
EXTT0=
EXTT1=
EXTT2=
EXTT3=
EXTT4=
EXTT5=
EXTT6=
EXTT7=
EXTT8=
EXTT9=
PLAYORDER=
